<?xml version="1.0" encoding="utf-8"?>
<svg width="1281px" height="513px" viewBox="0 0 1281 513" version="1.1" xmlns:xlink="http://www.w3.org/1999/xlink" xmlns="http://www.w3.org/2000/svg">
  <g id="LogoLargeDark" transform="translate(0.5 0.5)">
    <path d="M64.0195 256C64.0195 123.452 171.471 16 304.02 16C436.568 16 544.02 123.452 544.02 256C544.02 388.548 436.568 496 304.02 496C171.471 496 64.0195 388.548 64.0195 256Z" id="Ellipse" fill="#000000" fill-rule="evenodd" stroke="none" />
    <path d="M1158.84 349.36C1149.11 349.36 1140.06 347.355 1131.7 343.344C1123.34 339.333 1116.51 333.744 1111.22 326.576C1109.17 323.504 1108.15 320.517 1108.15 317.616C1108.15 313.52 1109.77 309.979 1113.01 306.992C1116.25 304.005 1119.58 302.512 1123 302.512C1127.43 302.512 1132.21 305.072 1137.33 310.192C1140.57 313.264 1143.9 315.44 1147.32 316.72C1150.73 318 1154.57 318.64 1158.84 318.64C1163.78 318.64 1168.52 317.36 1173.04 314.8C1177.57 312.24 1181.19 308.784 1183.92 304.432C1186.65 300.08 1188.02 295.515 1188.02 290.736L1188.02 183.216C1188.02 178.779 1189.64 175.067 1192.88 172.08C1196.13 169.093 1199.88 167.6 1204.15 167.6C1208.93 167.6 1212.77 169.051 1215.67 171.952C1218.57 174.853 1220.02 178.608 1220.02 183.216L1220.02 290.736C1220.02 300.976 1217.29 310.619 1211.83 319.664C1206.37 328.709 1198.94 335.92 1189.56 341.296C1180.17 346.672 1169.93 349.36 1158.84 349.36L1158.84 349.36ZM1087.67 257.2C1087.67 274.096 1083.91 289.584 1076.4 303.664C1068.89 317.744 1058.53 328.88 1045.3 337.072C1032.07 345.264 1017.18 349.36 1000.63 349.36C984.073 349.36 969.182 345.264 955.955 337.072C942.729 328.88 932.403 317.744 924.979 303.664C917.555 289.584 913.843 274.096 913.843 257.2C913.843 240.304 917.555 224.816 924.979 210.736C932.403 196.656 942.729 185.52 955.955 177.328C969.182 169.136 984.073 165.04 1000.63 165.04C1017.18 165.04 1032.07 169.136 1045.3 177.328C1058.53 185.52 1068.89 196.656 1076.4 210.736C1083.91 224.816 1087.67 240.304 1087.67 257.2L1087.67 257.2ZM1054.39 257.2C1054.39 245.765 1052.08 235.397 1047.48 226.096C1042.87 216.795 1036.47 209.413 1028.28 203.952C1020.08 198.491 1010.87 195.76 1000.63 195.76C990.217 195.76 980.958 198.448 972.852 203.824C964.745 209.2 958.43 216.581 953.908 225.968C949.385 235.355 947.124 245.765 947.124 257.2C947.124 268.635 949.385 279.045 953.908 288.432C958.43 297.819 964.745 305.2 972.852 310.576C980.958 315.952 990.217 318.64 1000.63 318.64C1010.87 318.64 1020.08 315.909 1028.28 310.448C1036.47 304.987 1042.87 297.605 1047.48 288.304C1052.08 279.003 1054.39 268.635 1054.39 257.2L1054.39 257.2ZM871.603 209.84C876.041 209.84 879.71 211.333 882.611 214.32C885.513 217.307 886.963 221.019 886.963 225.456L886.963 290.48C886.963 308.912 881.886 323.333 871.731 333.744C861.577 344.155 847.113 349.36 828.339 349.36C809.566 349.36 795.145 344.155 785.075 333.744C775.006 323.333 769.971 308.912 769.971 290.48L769.971 225.456C769.971 221.019 771.422 217.307 774.323 214.32C777.225 211.333 780.894 209.84 785.331 209.84C789.769 209.84 793.438 211.333 796.339 214.32C799.241 217.307 800.691 221.019 800.691 225.456L800.691 290.48C800.691 300.891 802.995 308.613 807.603 313.648C812.211 318.683 819.123 321.2 828.339 321.2C837.726 321.2 844.723 318.683 849.331 313.648C853.939 308.613 856.243 300.891 856.243 290.48L856.243 225.456C856.243 221.019 857.694 217.307 860.595 214.32C863.497 211.333 867.166 209.84 871.603 209.84L871.603 209.84ZM726.451 250.032C730.889 250.032 734.558 251.525 737.459 254.512C740.361 257.499 741.811 261.211 741.812 265.648L741.812 319.92C741.812 325.893 739.166 330.501 733.875 333.744C717.15 344.155 698.803 349.36 678.836 349.36C661.94 349.36 646.323 345.221 631.987 336.944C617.651 328.667 606.302 317.488 597.94 303.408C589.577 289.328 585.396 273.925 585.396 257.2C585.396 240.475 589.577 225.072 597.94 210.992C606.302 196.912 617.651 185.733 631.987 177.456C646.323 169.179 661.94 165.04 678.836 165.04C695.732 165.04 710.409 168.453 722.867 175.28C725.427 176.645 727.347 178.437 728.628 180.656C729.907 182.875 730.547 185.264 730.547 187.824C730.547 192.091 729.14 195.803 726.323 198.96C723.508 202.117 720.052 203.696 715.956 203.696C713.396 203.696 710.579 203.013 707.508 201.648C698.292 197.723 688.734 195.76 678.836 195.76C667.913 195.76 657.844 198.533 648.628 204.08C639.411 209.627 632.115 217.093 626.74 226.48C621.364 235.867 618.675 246.107 618.676 257.2C618.676 268.293 621.364 278.533 626.74 287.92C632.115 297.307 639.411 304.773 648.628 310.32C657.844 315.867 667.913 318.64 678.836 318.64C683.614 318.64 688.734 318.213 694.195 317.36C699.657 316.507 704.435 315.397 708.531 314.032L708.531 280.752L684.468 280.752C680.03 280.752 676.318 279.301 673.331 276.4C670.345 273.499 668.852 269.829 668.852 265.392C668.852 260.955 670.345 257.285 673.331 254.384C676.318 251.483 680.03 250.032 684.468 250.032L726.451 250.032Z" id="GuOJ" fill="#000000" fill-rule="evenodd" stroke="none" />
    <path d="M543.939 121.902C518.562 121.886 484.163 123.82 429.132 151.533C418.727 156.773 407.519 163.225 396.185 170.243C398.422 163.788 401.124 153.473 398.443 146.897C395.768 140.293 390.937 139.115 390.937 139.115C390.937 139.115 401.736 129.806 404.35 124.853C408.784 116.45 410.979 108.694 406.391 101.811C401.499 94.4575 384.315 93.4011 355.055 107.004C337.819 115.018 312.972 132.377 290.909 166.117C279.392 183.758 274.518 200.38 272.472 211.953C272.079 211.049 271.732 210.145 271.438 209.246C261.794 179.759 239.538 167.948 224.612 164.143C196.273 156.851 177.733 167.713 170.797 172.998C167.247 173.298 121.024 177.271 120.458 180.643C120.13 182.739 137.683 195.513 137.683 195.513L150.406 202.742L164.055 209.825C167.051 217.289 172.027 230.077 171.905 232.364C171.873 232.971 171.457 234.147 170.823 235.94C168.041 243.806 161.066 263.531 163.914 298.999C166.742 333.988 197.656 377.946 244.827 397.175C291.997 416.403 311.123 416.03 311.123 416.03C311.123 416.03 322.325 460.945 326.17 461.585C330.004 462.261 339.776 455.912 347.589 454.692C359.789 452.814 383.946 448.799 401.724 435.706C431.785 413.584 432.531 394.796 440.627 385.386C442.476 383.24 444.261 381.283 445.887 379.499C450.334 374.623 453.602 371.038 453.794 368.406C454.055 364.811 435.843 357.553 424.703 354.022C416.579 351.455 407.042 348.198 399.639 345.123C396.351 343.757 392.907 341.336 390.35 339.318C404.309 333.336 421.755 323.676 426.921 312.86C431.276 303.734 431.407 298.155 431.407 298.155C431.407 298.155 453.404 286.777 458.985 279.188C464.593 271.645 466.104 263.824 466.104 263.824C466.104 263.824 492.893 252.17 507.843 242.062C521.316 232.962 531.631 220.364 534.615 214.029C537.23 208.492 537.931 202.675 537.931 202.675C537.931 202.675 554.64 188.477 560.435 179.074C564.16 173.166 563.309 168.924 561.959 166.418C561.935 166.22 561.877 166.048 561.78 165.905C560.002 163.288 556.343 159.587 547.315 162.097C553.825 158.416 565.734 151.609 570.65 142.55C580.522 124.165 557.283 121.902 543.939 121.902Z" id="Vector-shape" fill="#FFFFFF" fill-rule="evenodd" stroke="#000000" stroke-width="1" />
    <path d="M0 0L1280 0L1280 512L0 512L0 0Z" id="Rectangle" fill="none" fill-rule="evenodd" stroke="none" />
  </g>
</svg>
