<?xml version="1.0" encoding="utf-8"?>
<svg width="1281px" height="513px" viewBox="0 0 1281 513" version="1.1" xmlns:xlink="http://www.w3.org/1999/xlink" xmlns="http://www.w3.org/2000/svg">
  <g id="LogoLargeLight" transform="translate(0.5 0.5)">
    <path d="M64.0195 254.498C64.0195 121.949 171.471 14.4976 304.02 14.4976C436.568 14.4976 544.02 121.949 544.02 254.498C544.02 387.046 436.568 494.498 304.02 494.498C171.471 494.498 64.0195 387.046 64.0195 254.498Z" id="Ellipse" fill="#FFFFFF" fill-rule="evenodd" stroke="none" />
    <path d="M1158.84 347.858C1149.11 347.858 1140.06 345.852 1131.7 341.842C1123.34 337.831 1116.51 332.242 1111.22 325.074C1109.17 322.002 1108.15 319.015 1108.15 316.114C1108.15 312.018 1109.77 308.476 1113.01 305.49C1116.25 302.503 1119.58 301.01 1123 301.01C1127.43 301.01 1132.21 303.57 1137.33 308.69C1140.57 311.762 1143.9 313.938 1147.32 315.218C1150.73 316.498 1154.57 317.138 1158.84 317.138C1163.78 317.138 1168.52 315.858 1173.04 313.298C1177.57 310.738 1181.19 307.282 1183.92 302.93C1186.65 298.578 1188.02 294.012 1188.02 289.234L1188.02 181.714C1188.02 177.276 1189.64 173.564 1192.88 170.578C1196.13 167.591 1199.88 166.098 1204.15 166.098C1208.93 166.098 1212.77 167.548 1215.67 170.45C1218.57 173.351 1220.02 177.106 1220.02 181.714L1220.02 289.234C1220.02 299.474 1217.29 309.116 1211.83 318.162C1206.37 327.207 1198.94 334.418 1189.56 339.794C1180.17 345.17 1169.93 347.858 1158.84 347.858L1158.84 347.858ZM1087.67 255.697C1087.67 272.593 1083.91 288.081 1076.4 302.161C1068.89 316.241 1058.53 327.378 1045.3 335.569C1032.07 343.761 1017.18 347.857 1000.63 347.857C984.073 347.857 969.182 343.761 955.955 335.569C942.729 327.378 932.403 316.241 924.979 302.161C917.555 288.081 913.843 272.593 913.843 255.697C913.843 238.801 917.555 223.313 924.979 209.233C932.403 195.153 942.729 184.017 955.955 175.825C969.182 167.633 984.073 163.537 1000.63 163.537C1017.18 163.537 1032.07 167.633 1045.3 175.825C1058.53 184.017 1068.89 195.153 1076.4 209.233C1083.91 223.313 1087.67 238.801 1087.67 255.697L1087.67 255.697ZM1054.39 255.697C1054.39 244.263 1052.08 233.895 1047.48 224.593C1042.87 215.292 1036.47 207.911 1028.28 202.449C1020.08 196.988 1010.87 194.257 1000.63 194.257C990.217 194.257 980.958 196.945 972.852 202.321C964.745 207.697 958.43 215.079 953.908 224.465C949.385 233.852 947.124 244.263 947.124 255.697C947.124 267.132 949.385 277.543 953.908 286.929C958.43 296.316 964.745 303.697 972.852 309.073C980.958 314.449 990.217 317.137 1000.63 317.137C1010.87 317.137 1020.08 314.407 1028.28 308.945C1036.47 303.484 1042.87 296.103 1047.48 286.801C1052.08 277.5 1054.39 267.132 1054.39 255.697L1054.39 255.697ZM871.603 208.338C876.041 208.338 879.71 209.831 882.611 212.818C885.513 215.804 886.963 219.516 886.963 223.954L886.963 288.978C886.963 307.41 881.886 321.831 871.731 332.242C861.577 342.652 847.113 347.858 828.339 347.858C809.566 347.858 795.145 342.652 785.075 332.242C775.006 321.831 769.971 307.41 769.971 288.978L769.971 223.954C769.971 219.516 771.422 215.804 774.323 212.818C777.225 209.831 780.894 208.338 785.331 208.338C789.769 208.338 793.438 209.831 796.339 212.818C799.241 215.804 800.691 219.516 800.691 223.954L800.691 288.978C800.691 299.388 802.995 307.111 807.603 312.146C812.211 317.18 819.123 319.698 828.339 319.698C837.726 319.698 844.723 317.18 849.331 312.146C853.939 307.111 856.243 299.388 856.243 288.978L856.243 223.954C856.243 219.516 857.694 215.804 860.595 212.818C863.497 209.831 867.166 208.338 871.603 208.338L871.603 208.338ZM726.451 248.529C730.889 248.529 734.558 250.023 737.459 253.009C740.361 255.996 741.811 259.708 741.812 264.145L741.812 318.417C741.812 324.391 739.166 328.999 733.875 332.241C717.15 342.652 698.803 347.857 678.836 347.857C661.94 347.857 646.323 343.719 631.987 335.441C617.651 327.164 606.302 315.985 597.94 301.905C589.577 287.825 585.396 272.423 585.396 255.697C585.396 238.972 589.577 223.569 597.94 209.489C606.302 195.409 617.651 184.231 631.987 175.953C646.323 167.676 661.94 163.537 678.836 163.537C695.732 163.537 710.409 166.951 722.867 173.777C725.427 175.143 727.347 176.935 728.628 179.153C729.907 181.372 730.547 183.761 730.547 186.321C730.547 190.588 729.14 194.3 726.323 197.457C723.508 200.615 720.052 202.193 715.956 202.193C713.396 202.193 710.579 201.511 707.508 200.145C698.292 196.22 688.734 194.257 678.836 194.257C667.913 194.257 657.844 197.031 648.628 202.577C639.411 208.124 632.115 215.591 626.74 224.977C621.364 234.364 618.675 244.604 618.676 255.697C618.676 266.791 621.364 277.031 626.74 286.417C632.115 295.804 639.411 303.271 648.628 308.817C657.844 314.364 667.913 317.137 678.836 317.137C683.614 317.137 688.734 316.711 694.195 315.857C699.657 315.004 704.435 313.895 708.531 312.529L708.531 279.249L684.468 279.249C680.03 279.249 676.318 277.799 673.331 274.897C670.345 271.996 668.852 268.327 668.852 263.889C668.852 259.452 670.345 255.783 673.331 252.881C676.318 249.98 680.03 248.529 684.468 248.529L726.451 248.529Z" id="GuOJ" fill="#FFFFFF" stroke="none" />
    <path d="M543.939 120.4C518.562 120.384 484.163 122.317 429.132 150.03C418.727 155.27 407.519 161.722 396.185 168.741C398.422 162.286 401.124 151.97 398.443 145.394C395.768 138.79 390.937 137.613 390.937 137.613C390.937 137.613 401.736 128.303 404.35 123.35C408.784 114.947 410.979 107.192 406.391 100.309C401.499 92.9549 384.315 91.8985 355.055 105.502C337.819 113.516 312.972 130.875 290.909 164.615C279.392 182.256 274.518 198.877 272.472 210.45C272.079 209.546 271.732 208.642 271.438 207.743C261.794 178.257 239.538 166.445 224.612 162.64C196.273 155.349 177.733 166.21 170.797 171.495C167.247 171.795 121.024 175.768 120.458 179.14C120.13 181.236 137.683 194.01 137.683 194.01L150.406 201.24L164.055 208.322C167.051 215.787 172.027 228.574 171.905 230.861C171.873 231.468 171.457 232.645 170.823 234.437C168.041 242.303 161.066 262.029 163.914 297.496C166.742 332.486 197.656 376.444 244.827 395.672C291.997 414.9 311.123 414.528 311.123 414.528C311.123 414.528 322.326 459.442 326.17 460.082C330.004 460.759 339.776 454.41 347.589 453.189C359.789 451.312 383.946 447.297 401.724 434.204C431.785 412.081 432.531 393.294 440.627 383.884C442.476 381.737 444.261 379.781 445.887 377.997C450.334 373.12 453.602 369.536 453.794 366.903C454.055 363.309 435.843 356.05 424.703 352.52C416.579 349.953 407.042 346.696 399.639 343.62C396.351 342.255 392.907 339.834 390.35 337.816C404.309 331.834 421.755 322.173 426.921 311.357C431.276 302.231 431.407 296.652 431.407 296.652C431.407 296.652 453.404 285.274 458.985 277.685C464.593 270.143 466.104 262.321 466.104 262.321C466.104 262.321 492.893 250.668 507.843 240.56C521.316 231.459 531.631 218.862 534.615 212.527C537.23 206.989 537.93 201.173 537.93 201.173C537.93 201.173 554.64 186.974 560.435 177.571C564.16 171.664 563.309 167.421 561.959 164.916C561.935 164.717 561.877 164.545 561.78 164.403C560.002 161.785 556.343 158.085 547.315 160.594C553.825 156.913 565.734 150.106 570.65 141.047C580.522 122.662 557.283 120.399 543.939 120.4Z" id="Vector-shape" fill="#000000" fill-rule="evenodd" stroke="#FFFFFF" stroke-width="1" />
    <path d="M0 0L1280 0L1280 512L0 512L0 0Z" id="Rectangle" fill="none" fill-rule="evenodd" stroke="none" />
  </g>
</svg>
