<?xml version="1.0" encoding="utf-8"?>
<svg width="361px" height="432px" viewBox="0 0 361 432" version="1.1" xmlns:xlink="http://www.w3.org/1999/xlink" xmlns="http://www.w3.org/2000/svg">
  <defs>
    <linearGradient x1="0.5440514" y1="1.5738336" x2="0.542971" y2="0.1637537" id="gradient_1">
      <stop offset="2.1604939%" stop-color="#828282" />
      <stop offset="100%" stop-color="#2E5D4B" />
    </linearGradient>
    <linearGradient x1="-1.0452433" y1="0.3739178" x2="0.5718738" y2="0.62424016" id="gradient_2">
      <stop offset="0%" stop-color="#979797" />
      <stop offset="100%" stop-color="#292929" />
    </linearGradient>
    <linearGradient x1="0.59470195" y1="-0.15190873" x2="0.5173816" y2="1.2639726" id="gradient_3">
      <stop offset="0%" stop-color="#FFFFFF" />
      <stop offset="48.295452%" stop-color="#C6C6C6" />
      <stop offset="100%" stop-color="#878787" />
    </linearGradient>
    <linearGradient x1="0.47067106" y1="-0.8204451" x2="0.50000006" y2="0.3522801" id="gradient_4">
      <stop offset="0%" stop-color="#FFFFFF" />
      <stop offset="100%" stop-color="#262626" />
    </linearGradient>
    <filter filterUnits="userSpaceOnUse" color-interpolation-filters="sRGB" id="filter_1">
      <feFlood flood-opacity="0" result="BackgroundImageFix" />
      <feColorMatrix in="SourceAlpha" type="matrix" values="0 0 0 0 0 0 0 0 0 0 0 0 0 0 0 0 0 0 127 0" />
      <feMorphology radius="3" operator="dilate" in="SourceAlpha" result="effect0_dropShadow" />
      <feOffset dx="0" dy="4" />
      <feGaussianBlur stdDeviation="7" />
      <feColorMatrix type="matrix" values="0 0 0 0 0.39215687 0 0 0 0 0.39215687 0 0 0 0 0.39215687 0 0 0 0.49803922 0" />
      <feBlend mode="normal" in2="BackgroundImageFix" result="effect0_dropShadow" />
      <feBlend mode="normal" in="SourceGraphic" in2="effect0_dropShadow" result="shape" />
    </filter>
    <filter filterUnits="userSpaceOnUse" color-interpolation-filters="sRGB" id="filter_2">
      <feFlood flood-opacity="0" result="BackgroundImageFix" />
      <feColorMatrix in="SourceAlpha" type="matrix" values="0 0 0 0 0 0 0 0 0 0 0 0 0 0 0 0 0 0 127 0" />
      <feMorphology radius="-3" operator="dilate" in="SourceAlpha" result="effect0_dropShadow" />
      <feOffset dx="0" dy="2" />
      <feGaussianBlur stdDeviation="14" />
      <feColorMatrix type="matrix" values="0 0 0 0 0.39215687 0 0 0 0 0.39215687 0 0 0 0 0.39215687 0 0 0 0.49803922 0" />
      <feBlend mode="normal" in2="BackgroundImageFix" result="effect0_dropShadow" />
      <feBlend mode="normal" in="SourceGraphic" in2="effect0_dropShadow" result="shape" />
    </filter>
    <filter filterUnits="userSpaceOnUse" color-interpolation-filters="sRGB" id="filter_3">
      <feFlood flood-opacity="0" result="BackgroundImageFix" />
      <feBlend mode="normal" in="SourceGraphic" in2="BackgroundImageFix" result="shape" />
      <feColorMatrix in="SourceAlpha" type="matrix" values="0 0 0 0 0 0 0 0 0 0 0 0 0 0 0 0 0 0 127 0" result="hardAlpha" />
      <feOffset dx="2" dy="0" />
      <feGaussianBlur stdDeviation="3" />
      <feComposite in2="hardAlpha" operator="arithmetic" k2="-1" k3="1" />
      <feColorMatrix type="matrix" values="0 0 0 0 0.39215687 0 0 0 0 0.39215687 0 0 0 0 0.39215687 0 0 0 0.49803922 0" />
      <feBlend mode="normal" in2="shape" result="effect0_innerShadow" />
    </filter>
    <filter filterUnits="userSpaceOnUse" color-interpolation-filters="sRGB" id="filter_4">
      <feFlood flood-opacity="0" result="BackgroundImageFix" />
      <feColorMatrix in="SourceAlpha" type="matrix" values="0 0 0 0 0 0 0 0 0 0 0 0 0 0 0 0 0 0 127 0" />
      <feOffset dx="0" dy="2" />
      <feGaussianBlur stdDeviation="2" />
      <feColorMatrix type="matrix" values="0 0 0 0 0.39215687 0 0 0 0 0.39215687 0 0 0 0 0.39215687 0 0 0 0.49803922 0" />
      <feBlend mode="normal" in2="BackgroundImageFix" result="effect0_dropShadow" />
      <feBlend mode="normal" in="SourceGraphic" in2="effect0_dropShadow" result="shape" />
    </filter>
    <path d="M145.273 112.705L148.077 111.265C158.193 106.23 193.931 89.793 226.591 91.305C247.563 92.2759 261.498 93.8658 275.097 101.292L285.797 107.711L299.35 119.838C299.35 119.838 299.885 111.635 296.497 102.718C293.108 93.8017 286.854 85.4297 285.797 84.1718C284.74 82.914 277.772 75.612 262.971 70.6187C248.169 65.6255 226.591 64.1988 226.591 64.1988C226.591 64.1988 209.828 63.6639 195.205 66.3388C180.582 69.0138 170.261 73.6949 168.099 74.8986C165.937 76.1024 158.826 83.9935 153.119 93.445C147.413 102.896 145.273 112.705 145.273 112.705Z" id="path_1" />
  </defs>
  <g id="Group" transform="translate(0.5 0.5)">
    <path d="M125.3 298.168L137.426 293.888C140.998 292.822 144.984 292.342 146.699 291.748C151.336 290.143 156.686 288.895 156.686 288.895C156.686 288.895 159.004 288.181 160.966 288.181C162.927 288.181 164.532 288.895 164.532 288.895L246.564 295.315C246.564 295.315 259.047 296.028 271.53 302.448C277.076 305.3 282.621 308.18 287.072 311.721L296.497 320.994C296.497 320.994 302.917 323.669 304.343 298.168C305.77 272.667 310.05 218.276 310.05 218.276C310.05 218.276 310.941 209.538 310.05 204.723C309.158 199.908 298.637 199.73 298.637 199.73L128.153 199.73C128.153 199.73 118.167 215.779 117.453 240.389C116.74 264.999 125.3 298.168 125.3 298.168Z" id="New-shape-4" fill="#929292" fill-rule="evenodd" stroke="none" />
    <path d="M159.538 310.334C160.744 309.095 179.869 309.264 198.058 311.76C216.248 314.257 231.787 318.024 233.724 321.033C235.662 324.043 251.57 351.106 251.557 353.846C251.545 356.587 246.743 357.413 241.571 361.693C237.973 364.671 222.633 378.952 215.161 379.487C207.689 380.022 202.406 374.687 198.058 373.106C193.711 371.525 153.2 355.491 150.979 353.846C148.759 352.201 148.779 344.403 148.839 342.433C148.9 340.464 158.333 311.572 159.538 310.334Z" id="New-shape-9" fill="#808080" fill-rule="evenodd" stroke="none" />
    <path d="M287.858 245.382C287.858 245.382 290.711 242.886 294.991 237.536C295.342 237.098 296.541 235.466 298.637 231.829C300.732 228.192 299.835 229.642 301.49 225.409C303.236 220.942 303.551 213.283 303.551 213.283C303.551 213.283 303.729 210.073 303.551 206.863C303.373 203.653 302.838 200.443 302.838 200.443L296.418 213.283L284.291 243.956C284.291 243.956 281.229 246.452 282.944 246.809C284.658 247.166 287.858 245.382 287.858 245.382Z" id="New-shape-6" fill="#FFC5B6" fill-rule="evenodd" stroke="none" />
    <path d="M159.539 310.294C160.745 309.056 179.869 309.224 198.059 311.721C216.249 314.218 231.788 317.985 233.725 320.994C235.663 324.004 251.57 351.067 251.558 353.807C251.546 356.547 246.743 357.374 241.572 361.654C236.4 365.934 232.162 371.555 230.872 370.927C229.581 370.299 226.77 362.545 222.312 355.947C217.854 349.349 213.039 344.534 213.039 344.534C213.039 344.534 209.651 346.674 205.906 353.807C202.161 360.94 199.947 372.255 198.059 373.067C196.171 373.879 153.2 355.452 150.98 353.807C148.759 352.162 148.78 344.363 148.84 342.394C148.9 340.424 158.334 311.533 159.539 310.294Z" id="New-shape-8" fill="#D3D3D3" fill-rule="evenodd" stroke="none" />
    <path d="M192.352 430.846C194.453 430.596 196.632 429.419 200.198 418.719C203.765 408.019 206.618 388.046 206.618 388.046L211.612 380.913L218.745 380.913L220.885 388.046C220.885 388.046 221.776 398.746 225.165 409.446C228.553 420.146 231.194 430.42 234.438 430.846C237.682 431.271 241.036 425.884 245.851 420.146C250.666 414.408 253.698 410.873 253.698 410.873L257.264 397.319L220.885 376.633L200.198 376.633L171.666 409.446C171.666 409.446 175.054 414.796 180.225 420.146C185.397 425.496 190.25 431.095 192.352 430.846Z" id="New-shape-11" fill="#213F34" fill-rule="evenodd" stroke="none" />
    <path d="M153.833 353.807C155.49 352.631 167.386 355.59 180.225 359.513C193.065 363.436 205.192 369.499 205.192 369.499C205.192 369.499 204.657 367.538 205.192 366.646C205.727 365.754 207.332 365.933 207.332 365.933C207.332 365.933 209.65 365.754 211.612 366.646C213.573 367.538 215.178 368.786 215.178 368.786C215.178 368.786 215.713 368.251 216.605 367.359C217.496 366.468 218.745 365.933 218.745 365.933C218.745 365.933 220.706 366.468 221.598 367.359C222.49 368.251 222.311 368.786 222.311 368.786C222.311 368.786 228.731 362.01 240.144 358.087C251.557 354.164 267.964 353.807 267.964 353.807C267.964 353.807 269.212 363.614 267.964 370.926C266.716 378.237 262.971 383.051 262.971 383.051C262.971 383.051 264.576 391.432 265.111 398.03C265.646 404.628 265.111 409.442 265.111 409.442C265.111 409.442 262.809 414.249 260.831 414.435C258.853 414.621 252.984 409.442 252.984 409.442L220.885 386.618L218.745 386.618C218.745 386.618 217.496 386.083 216.605 385.191C215.713 384.299 215.178 383.051 215.178 383.051C215.178 383.051 213.573 384.299 211.612 385.191C209.65 386.083 207.332 386.618 207.332 386.618C207.332 386.618 206.44 386.439 205.905 385.904C205.37 385.369 205.192 384.478 205.192 384.478C205.192 384.478 199.663 390.897 189.499 398.03C179.334 405.163 167.979 414.323 164.532 413.009C161.085 411.695 156.507 397.852 153.833 383.051C151.158 368.251 152.175 354.983 153.833 353.807Z" id="New-shape-10" fill="url(#gradient_1)" fill-rule="evenodd" stroke="none" />
    <path d="M163.819 273.915C163.819 273.915 165.959 290.321 166.672 301.735C167.386 313.148 166.672 319.568 166.672 319.568C166.672 319.568 173.449 325.452 184.505 331.694C195.562 337.936 210.898 344.534 210.898 344.534C210.898 344.534 214.465 343.285 218.031 340.967C221.598 338.649 225.165 335.261 225.165 335.261C225.165 335.261 223.381 329.197 223.738 317.428C224.095 305.658 226.591 288.181 226.591 288.181L163.819 273.915Z" id="New-shape-7" fill="#FECBBC" fill-rule="evenodd" stroke="none" />
    <path d="M95.3404 67.0521C95.3404 67.0521 87.4938 47.4358 78.934 31.3861C70.3741 15.3364 59.6743 0 59.6743 0L53.9118 14.2664C50.7382 21.2266 46.7484 28.3572 43.268 35.666C36.1348 50.6458 32.5682 62.7722 32.5682 62.7722C32.5682 62.7722 31.3199 67.4088 32.5682 70.6187C33.8165 73.8287 37.5614 77.7519 37.5614 77.7519C37.5614 77.7519 43.803 83.1018 49.6879 87.7384C55.5728 92.375 61.101 96.2983 61.101 96.2983C61.101 96.2983 60.2093 99.3299 59.6744 101.292C59.1394 103.253 58.961 104.145 58.961 104.145C58.961 104.145 50.2228 99.6866 41.8413 96.2983C33.4598 92.91 25.435 90.5917 25.435 90.5917C25.435 90.5917 17.7668 87.9167 11.8819 94.8716C5.99698 101.826 1.89539 118.411 1.89539 118.411C1.89539 118.411 -1.13624 129.824 0.468729 137.671C2.0737 145.517 8.31527 149.797 8.31527 149.797C8.31527 149.797 16.1618 149.619 21.155 148.371C26.1483 147.122 28.2882 144.804 28.2882 144.804C28.2882 144.804 30.0715 147.122 31.1415 149.797C32.2115 152.472 32.5682 155.504 32.5682 155.504L16.8751 164.777C16.8751 164.777 15.4485 169.235 15.4485 173.337C15.4485 177.438 16.8751 181.183 16.8751 181.183L28.2882 216.136C28.2882 216.136 30.0715 217.563 31.1415 217.563C32.2115 217.563 40.7713 210.43 47.5479 204.01C54.3244 197.59 59.6744 190.457 59.6744 190.457L72.5141 184.75L103.9 75.612L95.3404 67.0521Z" id="New-shape-3" fill="url(#gradient_2)" fill-rule="evenodd" stroke="none" />
    <path d="M135.286 251.089C135.286 251.089 146.521 266.782 166.672 281.762C174.396 287.503 195.742 302.971 210.185 309.581C210.185 309.581 211.565 310.639 213.038 311.008C214.415 311.352 215.891 311.008 215.891 311.008C226.404 307.039 242.573 295.902 250.844 290.321C265.646 280.335 273.448 272.617 275.097 271.062C276.747 269.506 285.084 243.599 291.503 226.836C297.923 210.073 300.777 204.01 300.777 204.01C300.777 204.01 302.025 200.621 302.917 195.45C303.808 190.278 304.343 183.323 304.343 183.323C304.343 183.323 300.777 164.42 291.503 153.364C282.23 142.307 269.391 138.384 269.391 138.384C269.391 138.384 256.372 133.213 245.138 129.824C233.903 126.436 222.311 125.544 222.311 125.544C222.311 125.544 209.828 125.009 198.772 126.971C187.715 128.933 178.085 133.391 178.085 133.391C178.085 133.391 161.679 138.563 150.979 146.944C140.28 155.326 135.286 166.917 135.286 166.917C135.286 166.917 133.146 209.36 133.146 230.403C133.146 251.445 135.286 251.089 135.286 251.089Z" id="New-shape" fill="#FFD7CB" fill-rule="evenodd" stroke="none" filter="url(#filter_1)" />
    <path d="M153.833 329.554C153.833 329.554 144.203 326.701 138.14 319.568C132.077 312.435 129.58 301.022 129.58 301.022C129.58 301.022 131.542 313.861 136 321.708C140.458 329.554 147.413 332.408 147.413 332.408C147.413 332.408 126.905 331.337 113.887 325.274C100.869 319.211 95.3405 308.155 95.3405 308.155C95.3405 308.155 93.9139 316.358 97.4805 321.708C101.047 327.058 109.607 329.554 109.607 329.554C109.607 329.554 102.295 332.051 97.4805 329.554C92.6656 327.058 90.3472 319.568 90.3472 319.568C90.3472 319.568 77.8641 323.491 69.6609 315.288C63.5876 309.214 59.0606 294.377 57.5344 288.181L56.1077 273.92C55.9512 262.557 57.0241 246.323 57.5344 232.543C58.4261 208.468 61.1011 190.457 61.1011 190.457C61.1011 190.457 63.4194 152.116 72.5142 121.264C81.6091 90.4134 97.4805 67.0522 97.4805 67.0522C97.4805 67.0522 120.128 39.2327 151.693 26.3929C183.257 13.5531 223.738 15.693 223.738 15.693C223.738 15.693 261.722 19.973 290.077 39.946C318.431 59.919 337.156 95.585 337.156 95.585C337.156 95.585 345.181 111.456 349.996 129.824C354.811 148.192 356.416 169.057 356.416 169.057C356.416 169.057 361.944 211.856 359.269 235.396C356.594 258.936 345.716 263.215 345.716 263.215C345.716 263.215 350.709 255.19 352.849 247.522C354.989 239.854 354.276 232.543 354.276 232.543C354.276 232.543 349.461 244.134 343.576 251.802C337.691 259.47 330.736 263.215 330.736 263.215C330.736 263.215 334.481 259.47 336.443 251.802C338.405 244.134 338.583 232.543 338.583 232.543C338.583 232.543 335.373 241.994 332.876 247.522C330.38 253.05 328.596 254.656 328.596 254.656C328.596 254.656 328.418 282.475 327.17 298.168C325.921 313.861 323.603 317.428 323.603 317.428C323.603 317.428 323.068 321.529 320.75 325.274C318.432 329.019 314.33 332.408 314.33 332.408C314.33 332.408 309.159 335.083 304.344 335.974C299.529 336.866 295.07 335.974 295.07 335.974C295.07 335.974 298.459 333.656 300.777 329.554C303.095 325.453 304.344 319.568 304.344 319.568C304.344 319.568 301.669 325.453 298.637 329.554C295.605 333.656 292.217 335.974 292.217 335.974C292.217 335.974 289.364 337.401 285.797 337.401C282.231 337.401 277.951 335.974 277.951 335.974C277.951 335.974 286.24 335.188 292.217 329.554C298.194 323.921 300.777 311.008 300.777 311.008L305.057 291.748C306.182 275.868 305.228 248.131 305.77 235.396C306.84 210.251 305.057 210.43 305.057 210.43C305.057 210.43 301.133 221.843 297.923 226.836C294.713 231.829 288.65 238.249 288.65 238.249L296.497 223.983C298.608 218.537 299.603 210.706 300.777 206.15C303.809 194.38 304.344 183.324 304.344 183.324C304.344 183.324 303.095 189.208 300.777 193.31C298.459 197.412 295.07 199.73 295.07 199.73C295.07 199.73 289.394 193.167 285.797 191.883C282.201 190.6 274.384 191.883 274.384 191.883C274.384 191.883 275.989 189.03 276.524 185.463C277.059 181.897 276.524 177.617 276.524 177.617C276.524 177.617 275.454 181.54 273.671 185.463C271.887 189.387 269.391 193.31 269.391 193.31C269.391 193.31 271.174 182.254 270.817 167.631C270.461 153.007 267.964 138.384 267.964 138.384C267.964 138.384 269.391 157.822 262.257 174.764C259.528 181.247 255.544 187.446 251.667 191.883L239.431 202.583C239.431 202.583 242.641 199.195 245.138 196.163C247.634 193.132 249.418 190.457 249.418 190.457C249.418 190.457 247.278 194.915 238.005 196.163C228.732 197.412 212.325 195.45 212.325 195.45C212.325 195.45 221.242 186.712 223.738 169.057C226.235 151.402 222.312 124.831 222.312 124.831C222.312 124.831 214.287 150.154 206.619 164.777C198.95 179.4 191.639 183.324 191.639 183.324C191.639 183.324 191.639 181.184 192.352 179.044C193.065 176.904 194.492 174.764 194.492 174.764C194.492 174.764 193.065 175.834 191.639 177.617C190.212 179.4 188.786 181.897 188.786 181.897C188.786 181.897 183.734 177.347 179.512 176.19C175.291 175.034 168.813 174.764 168.813 174.764C168.813 174.764 168.456 165.312 170.239 156.217C172.022 147.122 175.946 138.384 175.946 138.384C175.946 138.384 169.526 145.339 165.246 154.791C160.966 164.242 158.826 176.19 158.826 176.19C158.826 176.19 148.126 179.579 142.42 185.463C136.713 191.348 136 199.73 136 199.73C136 199.73 134.395 202.583 133.86 215.423C133.325 228.263 133.86 251.089 133.86 251.089C133.86 251.089 133.503 266.425 134.573 279.622C135.643 292.818 138.14 304.588 138.14 304.588C138.14 304.588 139.923 313.861 143.846 320.281C147.77 326.701 153.833 329.554 153.833 329.554Z" id="New-shape-2" fill="url(#gradient_3)" fill-rule="evenodd" stroke="none" />
    <g id="New-shape-5" filter="url(#filter_2)">
      <use stroke="none" fill="url(#gradient_4)" xlink:href="#path_1" fill-rule="evenodd" filter="url(#filter_3)" />
    </g>
    <path d="M357.145 41.1315C356.915 40.7013 356.414 40.075 354.991 40.312C356.051 39.8513 357.987 38.9984 358.887 37.6877C360.701 35.0221 358.543 34.7948 358.54 34.7944L358.54 34.7944C358.54 34.7944 358.539 34.797 358.538 34.8021C358.072 34.4817 357.168 34.3002 355.115 34.0846C351.218 33.6724 345.903 33.4141 337.003 36.7824C335.32 37.4193 333.494 38.2294 331.64 39.1244C332.088 38.1691 332.669 36.6282 332.363 35.5749C332.059 34.5173 331.336 34.2584 331.336 34.2584C331.336 34.2584 333.145 33.0028 333.627 32.2842C334.444 31.0651 334.906 29.9093 334.312 28.778C333.679 27.5695 331.057 27.1298 326.343 28.7469C323.566 29.6996 319.469 31.9648 315.536 36.7911C313.482 39.3147 312.465 41.7891 311.964 43.5336C311.918 43.3885 311.88 43.2441 311.849 43.1013C310.844 38.4165 307.616 36.2429 305.385 35.4175C301.149 33.8398 298.126 35.2093 296.975 35.9091C296.405 35.8975 289.263 35.7627 289.122 36.2708C289.038 36.5874 291.528 38.8328 291.528 38.8328L293.366 40.1487L295.345 41.4552C295.685 42.6499 296.243 44.6959 296.187 45.0454C296.173 45.1381 296.09 45.3121 295.963 45.5772C295.409 46.7405 294.019 49.6577 293.884 55.1515C293.754 60.5716 297.793 67.8226 304.728 71.5377C311.662 75.2527 314.606 75.5042 314.606 75.5042C314.606 75.5042 315.602 82.5839 316.182 82.7443C316.76 82.9102 318.364 82.0927 319.583 82.0313C321.487 81.9399 325.263 81.7132 328.205 79.9891C333.18 77.0764 333.597 74.2027 334.993 72.888C335.312 72.5882 335.617 72.3164 335.896 72.0687C336.658 71.3914 337.217 70.8936 337.289 70.4924C337.388 69.9444 334.707 68.5355 333.053 67.8133C331.847 67.288 330.435 66.6337 329.347 66.0418C328.865 65.7797 328.377 65.3538 328.017 65.0032C330.259 64.31 333.098 63.1071 334.066 61.528C334.883 60.1965 334.993 59.3417 334.993 59.3417C334.993 59.3417 338.555 57.9491 339.535 56.8736C340.518 55.8056 340.877 54.6285 340.877 54.6285C340.877 54.6285 345.18 53.2711 347.639 51.9599C349.856 50.7795 351.643 49.0111 352.204 48.0862C352.695 47.2778 352.897 46.3957 352.897 46.3957C352.897 46.3957 355.692 44.4846 356.734 43.1338C357.414 42.2709 357.337 41.5967 357.163 41.1923C357.161 41.1698 357.155 41.1495 357.145 41.1315L357.145 41.1315Z" id="Vector-shape" fill="#D2D2D2" fill-rule="evenodd" stroke="#4C4C4C" stroke-width="1" filter="url(#filter_4)" />
  </g>
</svg>