<?xml version="1.0" encoding="utf-8"?>
<svg width="154px" height="147px" viewBox="0 0 154 147" version="1.1" xmlns:xlink="http://www.w3.org/1999/xlink" xmlns="http://www.w3.org/2000/svg">
  <defs>
    <filter filterUnits="userSpaceOnUse" color-interpolation-filters="sRGB" id="filter_1">
      <feFlood flood-opacity="0" result="BackgroundImageFix" />
      <feColorMatrix in="SourceAlpha" type="matrix" values="0 0 0 0 0 0 0 0 0 0 0 0 0 0 0 0 0 0 127 0" />
      <feOffset dx="0" dy="4" />
      <feGaussianBlur stdDeviation="4" />
      <feColorMatrix type="matrix" values="0 0 0 0 0 0 0 0 0 0 0 0 0 0 0 0 0 0 0.49803922 0" />
      <feBlend mode="normal" in2="BackgroundImageFix" result="effect0_dropShadow" />
      <feBlend mode="normal" in="SourceGraphic" in2="effect0_dropShadow" result="shape" />
    </filter>
  </defs>
  <path d="M138.226 35.603C138.226 35.603 138.226 35.6067 138.225 35.614C137.419 35.1788 135.933 35.0399 132.597 35.0401C126.253 35.0361 117.653 35.5195 103.895 42.4478C101.294 43.7577 98.4922 45.3707 95.6585 47.1253C96.218 45.5116 96.8935 42.9327 96.2231 41.2887C95.5543 39.6377 94.3466 39.3433 94.3466 39.3433C94.3466 39.3433 97.0463 37.0159 97.6998 35.7776C98.8085 33.6769 99.3572 31.7381 98.2101 30.0174C96.9872 28.1789 92.6912 27.9148 85.3761 31.3156C81.0671 33.3191 74.8553 37.6589 69.3396 46.0938C66.4604 50.504 65.242 54.6594 64.7304 57.5527C64.6321 57.3267 64.5453 57.1007 64.4719 56.8759C62.0609 49.5044 56.497 46.5515 52.7653 45.6003C45.6805 43.7773 41.0456 46.4927 39.3117 47.8139C38.424 47.889 26.8684 48.8821 26.7268 49.7253C26.6449 50.2491 31.0332 53.4426 31.0332 53.4426L34.2138 55.2501L37.6261 57.0207C38.375 58.8868 39.619 62.0836 39.5886 62.6555C39.5806 62.8072 39.4765 63.1013 39.3181 63.5495C38.6227 65.5159 36.879 70.4473 37.591 79.3142C38.298 88.0616 46.0265 99.0511 57.819 103.858C69.6116 108.665 74.3932 108.572 74.3932 108.572C74.3932 108.572 77.1938 119.801 78.1548 119.961C79.1135 120.13 81.5564 118.543 83.5096 118.237C86.5596 117.768 92.5988 116.764 97.0433 113.491C104.559 107.96 104.745 103.264 106.769 100.911C107.231 100.374 107.678 99.8853 108.084 99.4393C109.196 98.2201 110.013 97.324 110.061 96.666C110.126 95.7673 105.573 93.9527 102.788 93.07C100.757 92.4283 98.3728 91.614 96.5222 90.8452C95.7002 90.5038 94.8391 89.8986 94.1998 89.3941C97.6897 87.8986 102.051 85.4835 103.342 82.7794C104.431 80.498 104.464 79.1031 104.464 79.1031C104.464 79.1031 109.963 76.2587 111.359 74.3615C112.761 72.4758 113.138 70.5204 113.138 70.5204C113.138 70.5204 119.836 67.607 123.573 65.0801C126.941 62.805 129.52 59.6556 130.266 58.0718C130.92 56.6874 131.095 55.2333 131.095 55.2333C131.095 55.2333 135.272 51.6837 136.721 49.3329C137.652 47.8561 137.44 46.7955 137.102 46.1691C137.096 46.1194 137.082 46.0764 137.057 46.0408C136.613 45.3864 135.698 44.4614 133.441 45.0887C135.069 44.1684 138.046 42.4666 139.275 40.2019C141.743 35.6057 138.234 35.603 138.226 35.603L138.226 35.603Z" id="Vector-shape" fill="#000000" fill-rule="evenodd" stroke="#FFFFFF" stroke-width="1" filter="url(#filter_1)" />
</svg>
